<svg xmlns="http://www.w3.org/2000/svg" xmlns:xlink="http://www.w3.org/1999/xlink" width="800" zoomAndPan="magnify" viewBox="0 0 600 599.999999" height="800" preserveAspectRatio="xMidYMid meet" version="1.0"><rect x="-60" width="720" fill="#ffffff" y="-60" height="719.999999" fill-opacity="1"/><rect x="-60" width="720" fill="#302f3b" y="-60" height="719.999999" fill-opacity="1"/><path fill="#f26849" d="M 300 0 C 295.089844 0 290.183594 0.121094 285.28125 0.363281 C 280.375 0.601562 275.480469 0.964844 270.59375 1.445312 C 265.707031 1.925781 260.835938 2.527344 255.980469 3.246094 C 251.125 3.96875 246.289062 4.804688 241.472656 5.765625 C 236.65625 6.722656 231.867188 7.796875 227.105469 8.992188 C 222.34375 10.183594 217.613281 11.492188 212.914062 12.917969 C 208.214844 14.34375 203.554688 15.882812 198.933594 17.535156 C 194.308594 19.191406 189.730469 20.957031 185.195312 22.835938 C 180.660156 24.714844 176.171875 26.703125 171.734375 28.804688 C 167.296875 30.902344 162.910156 33.109375 158.582031 35.421875 C 154.25 37.738281 149.980469 40.15625 145.769531 42.679688 C 141.558594 45.207031 137.410156 47.832031 133.328125 50.558594 C 129.246094 53.285156 125.234375 56.113281 121.289062 59.039062 C 117.347656 61.960938 113.476562 64.980469 109.683594 68.097656 C 105.886719 71.210938 102.171875 74.417969 98.53125 77.714844 C 94.894531 81.011719 91.339844 84.394531 87.867188 87.867188 C 84.394531 91.339844 81.011719 94.894531 77.714844 98.53125 C 74.417969 102.171875 71.210938 105.886719 68.097656 109.683594 C 64.980469 113.476562 61.960938 117.347656 59.039062 121.289062 C 56.113281 125.234375 53.285156 129.246094 50.558594 133.328125 C 47.832031 137.410156 45.207031 141.558594 42.679688 145.769531 C 40.15625 149.980469 37.738281 154.25 35.421875 158.582031 C 33.109375 162.910156 30.902344 167.296875 28.804688 171.734375 C 26.703125 176.171875 24.714844 180.660156 22.835938 185.195312 C 20.957031 189.730469 19.191406 194.308594 17.535156 198.933594 C 15.882812 203.554688 14.34375 208.214844 12.917969 212.914062 C 11.492188 217.613281 10.183594 222.34375 8.992188 227.105469 C 7.796875 231.867188 6.722656 236.65625 5.765625 241.472656 C 4.804688 246.289062 3.96875 251.125 3.246094 255.980469 C 2.527344 260.835938 1.925781 265.707031 1.445312 270.59375 C 0.964844 275.480469 0.601562 280.375 0.363281 285.28125 C 0.121094 290.183594 0 295.089844 0 300 C 0 304.910156 0.121094 309.816406 0.363281 314.71875 C 0.601562 319.625 0.964844 324.519531 1.445312 329.40625 C 1.925781 334.292969 2.527344 339.164062 3.246094 344.019531 C 3.96875 348.875 4.804688 353.710938 5.765625 358.527344 C 6.722656 363.34375 7.796875 368.132812 8.992188 372.894531 C 10.183594 377.65625 11.492188 382.386719 12.917969 387.085938 C 14.34375 391.785156 15.882812 396.445312 17.535156 401.066406 C 19.191406 405.691406 20.957031 410.269531 22.835938 414.804688 C 24.714844 419.339844 26.703125 423.828125 28.804688 428.265625 C 30.902344 432.703125 33.109375 437.089844 35.421875 441.417969 C 37.738281 445.75 40.15625 450.019531 42.679688 454.230469 C 45.207031 458.441406 47.832031 462.589844 50.558594 466.671875 C 53.285156 470.753906 56.113281 474.765625 59.039062 478.710938 C 61.960938 482.652344 64.980469 486.523438 68.097656 490.316406 C 71.210938 494.113281 74.417969 497.828125 77.714844 501.46875 C 81.011719 505.105469 84.394531 508.660156 87.867188 512.132812 C 91.339844 515.605469 94.894531 518.988281 98.53125 522.285156 C 102.171875 525.582031 105.886719 528.789062 109.683594 531.902344 C 113.476562 535.019531 117.347656 538.039062 121.289062 540.960938 C 125.234375 543.886719 129.246094 546.714844 133.328125 549.441406 C 137.410156 552.167969 141.558594 554.792969 145.769531 557.320312 C 149.980469 559.84375 154.25 562.261719 158.582031 564.578125 C 162.910156 566.890625 167.296875 569.097656 171.734375 571.195312 C 176.171875 573.296875 180.660156 575.285156 185.195312 577.164062 C 189.730469 579.042969 194.308594 580.808594 198.933594 582.464844 C 203.554688 584.117188 208.214844 585.65625 212.914062 587.082031 C 217.613281 588.507812 222.34375 589.816406 227.105469 591.007812 C 231.867188 592.203125 236.65625 593.277344 241.472656 594.234375 C 246.289062 595.195312 251.125 596.03125 255.980469 596.753906 C 260.835938 597.472656 265.707031 598.074219 270.59375 598.554688 C 275.480469 599.035156 280.375 599.398438 285.28125 599.636719 C 290.183594 599.878906 295.089844 600 300 600 C 304.910156 600 309.816406 599.878906 314.71875 599.636719 C 319.625 599.398438 324.519531 599.035156 329.40625 598.554688 C 334.292969 598.074219 339.164062 597.472656 344.019531 596.753906 C 348.875 596.03125 353.710938 595.191406 358.527344 594.234375 C 363.34375 593.277344 368.132812 592.203125 372.894531 591.007812 C 377.65625 589.816406 382.386719 588.507812 387.085938 587.082031 C 391.785156 585.65625 396.445312 584.117188 401.066406 582.464844 C 405.691406 580.808594 410.269531 579.042969 414.804688 577.164062 C 419.339844 575.285156 423.828125 573.296875 428.265625 571.195312 C 432.703125 569.097656 437.089844 566.890625 441.417969 564.578125 C 445.75 562.261719 450.019531 559.84375 454.230469 557.320312 C 458.441406 554.792969 462.589844 552.167969 466.671875 549.441406 C 470.753906 546.714844 474.765625 543.886719 478.710938 540.960938 C 482.652344 538.039062 486.523438 535.019531 490.316406 531.902344 C 494.113281 528.789062 497.828125 525.582031 501.46875 522.285156 C 505.105469 518.988281 508.660156 515.605469 512.132812 512.132812 C 515.605469 508.660156 518.988281 505.105469 522.285156 501.46875 C 525.582031 497.828125 528.789062 494.113281 531.902344 490.316406 C 535.019531 486.523438 538.039062 482.652344 540.960938 478.710938 C 543.886719 474.765625 546.714844 470.753906 549.441406 466.671875 C 552.167969 462.589844 554.792969 458.441406 557.320312 454.230469 C 559.84375 450.019531 562.261719 445.75 564.578125 441.417969 C 566.890625 437.089844 569.097656 432.703125 571.195312 428.265625 C 573.296875 423.828125 575.285156 419.339844 577.164062 414.804688 C 579.042969 410.269531 580.808594 405.691406 582.464844 401.066406 C 584.117188 396.445312 585.65625 391.785156 587.082031 387.085938 C 588.507812 382.386719 589.816406 377.65625 591.007812 372.894531 C 592.203125 368.132812 593.277344 363.34375 594.234375 358.527344 C 595.191406 353.710938 596.03125 348.875 596.753906 344.019531 C 597.472656 339.164062 598.074219 334.292969 598.554688 329.40625 C 599.035156 324.519531 599.398438 319.625 599.636719 314.71875 C 599.878906 309.816406 600 304.910156 600 300 C 600 295.089844 599.878906 290.183594 599.636719 285.28125 C 599.394531 280.375 599.035156 275.480469 598.550781 270.597656 C 598.070312 265.710938 597.46875 260.839844 596.746094 255.984375 C 596.027344 251.125 595.1875 246.289062 594.230469 241.476562 C 593.269531 236.660156 592.195312 231.871094 591 227.109375 C 589.808594 222.347656 588.5 217.617188 587.074219 212.917969 C 585.648438 208.222656 584.109375 203.558594 582.453125 198.9375 C 580.800781 194.316406 579.03125 189.738281 577.152344 185.199219 C 575.273438 180.664062 573.285156 176.179688 571.1875 171.738281 C 569.085938 167.300781 566.878906 162.917969 564.566406 158.589844 C 562.25 154.257812 559.832031 149.988281 557.308594 145.777344 C 554.78125 141.566406 552.15625 137.417969 549.429688 133.335938 C 546.703125 129.253906 543.875 125.242188 540.949219 121.300781 C 538.027344 117.355469 535.007812 113.488281 531.890625 109.691406 C 528.777344 105.898438 525.570312 102.179688 522.273438 98.542969 C 518.976562 94.90625 515.59375 91.351562 512.121094 87.878906 C 508.648438 84.40625 505.09375 81.023438 501.457031 77.726562 C 497.820312 74.429688 494.101562 71.222656 490.308594 68.109375 C 486.511719 64.992188 482.644531 61.972656 478.699219 59.050781 C 474.757812 56.125 470.746094 53.296875 466.664062 50.570312 C 462.578125 47.84375 458.433594 45.21875 454.222656 42.691406 C 450.011719 40.167969 445.742188 37.75 441.410156 35.433594 C 437.082031 33.121094 432.699219 30.914062 428.261719 28.8125 C 423.820312 26.714844 419.335938 24.726562 414.800781 22.847656 C 410.261719 20.96875 405.683594 19.199219 401.0625 17.546875 C 396.4375 15.890625 391.777344 14.351562 387.082031 12.925781 C 382.382812 11.5 377.652344 10.191406 372.890625 8.996094 C 368.128906 7.804688 363.339844 6.730469 358.523438 5.769531 C 353.710938 4.8125 348.875 3.972656 344.015625 3.25 C 339.160156 2.53125 334.289062 1.929688 329.402344 1.449219 C 324.519531 0.964844 319.625 0.605469 314.71875 0.363281 C 309.816406 0.121094 304.910156 0 300 0 Z M 161.8125 151.96875 L 438.1875 151.96875 C 439.648438 151.96875 441.105469 152.03125 442.558594 152.160156 C 444.011719 152.289062 445.457031 152.484375 446.894531 152.738281 C 448.332031 152.996094 449.753906 153.316406 451.164062 153.703125 C 452.574219 154.085938 453.960938 154.53125 455.332031 155.039062 C 456.699219 155.546875 458.042969 156.113281 459.363281 156.738281 C 460.679688 157.367188 461.96875 158.050781 463.226562 158.789062 C 464.484375 159.53125 465.707031 160.328125 466.894531 161.175781 C 468.082031 162.027344 469.230469 162.925781 470.335938 163.878906 C 471.441406 164.832031 472.503906 165.828125 473.523438 166.875 C 474.542969 167.921875 475.511719 169.011719 476.433594 170.144531 C 477.355469 171.277344 478.226562 172.445312 479.042969 173.65625 C 479.859375 174.867188 480.621094 176.109375 481.328125 177.386719 C 482.035156 178.664062 482.683594 179.96875 483.277344 181.304688 C 483.867188 182.640625 484.398438 184 484.867188 185.382812 C 485.335938 186.761719 485.746094 188.164062 486.089844 189.582031 C 486.4375 191 486.71875 192.429688 486.9375 193.875 C 483 196.03125 331.125 283.59375 321.09375 289.3125 C 319.492188 290.21875 317.839844 291.019531 316.132812 291.710938 C 314.429688 292.40625 312.6875 292.988281 310.90625 293.457031 C 309.125 293.921875 307.324219 294.277344 305.5 294.511719 C 303.671875 294.75 301.839844 294.867188 300 294.867188 C 298.160156 294.867188 296.328125 294.75 294.5 294.511719 C 292.675781 294.277344 290.875 293.921875 289.09375 293.457031 C 287.3125 292.988281 285.570312 292.40625 283.867188 291.710938 C 282.160156 291.019531 280.507812 290.21875 278.90625 289.3125 C 269.0625 283.6875 116.8125 196.96875 113.0625 194.625 C 113.257812 193.164062 113.519531 191.714844 113.84375 190.277344 C 114.171875 188.839844 114.5625 187.417969 115.015625 186.015625 C 115.46875 184.613281 115.984375 183.234375 116.5625 181.878906 C 117.140625 180.523438 117.777344 179.195312 118.476562 177.894531 C 119.171875 176.597656 119.925781 175.332031 120.738281 174.101562 C 121.546875 172.871094 122.414062 171.679688 123.332031 170.523438 C 124.25 169.371094 125.214844 168.261719 126.234375 167.195312 C 127.25 166.128906 128.316406 165.109375 129.425781 164.140625 C 130.535156 163.167969 131.683594 162.25 132.878906 161.382812 C 134.070312 160.515625 135.296875 159.703125 136.5625 158.945312 C 137.828125 158.191406 139.125 157.492188 140.453125 156.851562 C 141.78125 156.210938 143.132812 155.632812 144.511719 155.113281 C 145.894531 154.59375 147.292969 154.136719 148.714844 153.746094 C 150.136719 153.351562 151.570312 153.023438 153.019531 152.761719 C 154.472656 152.496094 155.929688 152.300781 157.398438 152.167969 C 158.867188 152.035156 160.339844 151.96875 161.8125 151.96875 Z M 487.5 398.71875 C 487.496094 400.332031 487.417969 401.945312 487.257812 403.550781 C 487.097656 405.15625 486.859375 406.75 486.542969 408.335938 C 486.226562 409.917969 485.832031 411.480469 485.363281 413.027344 C 484.894531 414.570312 484.347656 416.089844 483.730469 417.582031 C 483.113281 419.070312 482.421875 420.527344 481.660156 421.953125 C 480.898438 423.375 480.066406 424.757812 479.171875 426.101562 C 478.273438 427.441406 477.3125 428.738281 476.289062 429.984375 C 475.265625 431.234375 474.179688 432.429688 473.039062 433.570312 C 471.898438 434.710938 470.703125 435.796875 469.453125 436.820312 C 468.207031 437.84375 466.910156 438.804688 465.570312 439.703125 C 464.226562 440.597656 462.84375 441.429688 461.421875 442.191406 C 459.996094 442.953125 458.539062 443.644531 457.050781 444.261719 C 455.558594 444.878906 454.039062 445.425781 452.496094 445.894531 C 450.949219 446.363281 449.386719 446.757812 447.804688 447.074219 C 446.21875 447.390625 444.625 447.628906 443.019531 447.789062 C 441.414062 447.949219 439.800781 448.027344 438.1875 448.03125 L 161.8125 448.03125 C 160.199219 448.027344 158.585938 447.949219 156.980469 447.789062 C 155.375 447.628906 153.78125 447.390625 152.195312 447.074219 C 150.613281 446.757812 149.050781 446.363281 147.503906 445.894531 C 145.960938 445.425781 144.441406 444.878906 142.949219 444.261719 C 141.460938 443.644531 140.003906 442.953125 138.578125 442.191406 C 137.15625 441.429688 135.773438 440.597656 134.429688 439.703125 C 133.089844 438.804688 131.792969 437.84375 130.546875 436.820312 C 129.296875 435.792969 128.101562 434.710938 126.960938 433.570312 C 125.820312 432.429688 124.734375 431.234375 123.710938 429.984375 C 122.6875 428.738281 121.726562 427.441406 120.828125 426.101562 C 119.933594 424.757812 119.101562 423.375 118.339844 421.953125 C 117.578125 420.527344 116.886719 419.070312 116.269531 417.582031 C 115.652344 416.089844 115.105469 414.570312 114.636719 413.027344 C 114.167969 411.480469 113.773438 409.917969 113.457031 408.335938 C 113.140625 406.75 112.902344 405.15625 112.742188 403.550781 C 112.582031 401.945312 112.503906 400.332031 112.5 398.71875 L 112.5 217.03125 L 269.25 306.46875 C 271.585938 307.800781 274 308.972656 276.488281 309.992188 C 278.976562 311.011719 281.519531 311.863281 284.117188 312.550781 C 286.714844 313.238281 289.347656 313.757812 292.015625 314.105469 C 294.679688 314.453125 297.359375 314.625 300.046875 314.625 C 302.734375 314.625 305.414062 314.453125 308.078125 314.105469 C 310.746094 313.757812 313.378906 313.238281 315.976562 312.550781 C 318.574219 311.863281 321.117188 311.011719 323.605469 309.992188 C 326.09375 308.972656 328.507812 307.800781 330.84375 306.46875 L 487.5 216.28125 Z M 487.5 398.71875 " fill-opacity="1" fill-rule="nonzero"/></svg>