<svg xmlns="http://www.w3.org/2000/svg" xmlns:xlink="http://www.w3.org/1999/xlink" width="800" zoomAndPan="magnify" viewBox="0 0 600 599.999999" height="800" preserveAspectRatio="xMidYMid meet" version="1.0"><rect x="-60" width="720" fill="#ffffff" y="-60" height="719.999999" fill-opacity="1"/><rect x="-60" width="720" fill="#302f3b" y="-60" height="719.999999" fill-opacity="1"/><path fill="#f26849" d="M 299.039062 0.546875 C 132.859375 1.105469 0.0429688 136.226562 2.210938 302.394531 C 2.3125 310.742188 2.761719 319.074219 3.5625 327.382812 C 4.363281 335.695312 5.515625 343.957031 7.015625 352.167969 C 8.515625 360.382812 10.355469 368.515625 12.542969 376.574219 C 14.730469 384.632812 17.253906 392.585938 20.109375 400.429688 C 22.96875 408.273438 26.152344 415.984375 29.660156 423.558594 C 33.167969 431.136719 36.992188 438.550781 41.128906 445.804688 C 45.261719 453.054688 49.695312 460.121094 54.429688 467 C 59.160156 473.878906 64.171875 480.546875 69.46875 487 C 70.300781 488.019531 71.050781 489.097656 71.722656 490.226562 C 72.394531 491.359375 72.976562 492.535156 73.472656 493.753906 C 73.96875 494.972656 74.367188 496.222656 74.675781 497.5 C 74.984375 498.777344 75.195312 500.074219 75.3125 501.382812 C 75.425781 502.695312 75.441406 504.007812 75.359375 505.320312 C 75.28125 506.632812 75.101562 507.933594 74.824219 509.21875 C 74.546875 510.503906 74.179688 511.765625 73.714844 512.996094 C 73.25 514.226562 72.695312 515.414062 72.054688 516.5625 L 46.394531 562.546875 C 39.28125 575.292969 50.871094 590.367188 65.019531 586.765625 L 151.929688 564.636719 C 154.960938 563.867188 158.03125 563.640625 161.140625 563.960938 C 164.253906 564.28125 167.214844 565.125 170.027344 566.492188 C 179.605469 571.148438 189.410156 575.273438 199.4375 578.871094 C 209.460938 582.46875 219.652344 585.519531 230.007812 588.019531 C 240.359375 590.515625 250.820312 592.453125 261.382812 593.824219 C 271.945312 595.195312 282.550781 595.996094 293.199219 596.226562 C 460.28125 600.003906 597.421875 466.496094 597.941406 299.375 C 598.460938 134.082031 464.339844 -0.0117188 299.039062 0.546875 Z M 300.066406 559.597656 C 295.792969 559.597656 291.519531 559.492188 287.25 559.285156 C 282.980469 559.074219 278.71875 558.757812 274.464844 558.339844 C 270.210938 557.921875 265.972656 557.398438 261.742188 556.773438 C 257.515625 556.144531 253.304688 555.414062 249.113281 554.582031 C 244.921875 553.746094 240.753906 552.808594 236.605469 551.773438 C 232.460938 550.734375 228.339844 549.59375 224.25 548.351562 C 220.160156 547.113281 216.105469 545.773438 212.078125 544.332031 C 208.054688 542.890625 204.066406 541.355469 200.117188 539.71875 C 196.171875 538.082031 192.265625 536.351562 188.398438 534.523438 C 184.535156 532.695312 180.71875 530.777344 176.949219 528.761719 C 173.179688 526.746094 169.460938 524.640625 165.796875 522.441406 C 162.128906 520.246094 158.519531 517.957031 154.964844 515.585938 C 151.410156 513.210938 147.917969 510.75 144.484375 508.203125 C 141.050781 505.65625 137.683594 503.027344 134.378906 500.316406 C 131.074219 497.605469 127.839844 494.8125 124.671875 491.941406 C 121.503906 489.074219 118.410156 486.125 115.386719 483.105469 C 112.367188 480.082031 109.417969 476.988281 106.546875 473.820312 C 103.679688 470.652344 100.886719 467.417969 98.175781 464.113281 C 95.464844 460.808594 92.835938 457.441406 90.289062 454.007812 C 87.742188 450.574219 85.28125 447.082031 82.90625 443.527344 C 80.53125 439.972656 78.246094 436.363281 76.050781 432.695312 C 73.851562 429.03125 71.746094 425.3125 69.730469 421.542969 C 67.714844 417.773438 65.792969 413.957031 63.96875 410.089844 C 62.140625 406.226562 60.40625 402.320312 58.773438 398.371094 C 57.136719 394.421875 55.597656 390.4375 54.160156 386.410156 C 52.71875 382.386719 51.378906 378.332031 50.136719 374.238281 C 48.898438 370.148438 47.757812 366.03125 46.71875 361.886719 C 45.679688 357.738281 44.742188 353.570312 43.910156 349.378906 C 43.074219 345.183594 42.34375 340.976562 41.71875 336.746094 C 41.089844 332.519531 40.566406 328.277344 40.148438 324.023438 C 39.730469 319.769531 39.414062 315.507812 39.207031 311.238281 C 38.996094 306.96875 38.890625 302.699219 38.890625 298.425781 C 38.890625 154.183594 155.824219 37.25 300.066406 37.25 C 443.75 37.25 560.332031 153.277344 561.234375 296.746094 C 562.140625 440.699219 444.023438 559.597656 300.066406 559.597656 Z M 300.066406 559.597656 " fill-opacity="1" fill-rule="nonzero"/><path fill="#f26849" d="M 253.386719 171.449219 L 253.507812 171.6875 L 269.085938 202.582031 C 269.921875 204.246094 270.621094 205.960938 271.183594 207.738281 C 271.742188 209.511719 272.15625 211.320312 272.425781 213.160156 C 272.695312 215 272.8125 216.851562 272.785156 218.714844 C 272.753906 220.574219 272.574219 222.417969 272.246094 224.25 C 271.917969 226.082031 271.445312 227.875 270.828125 229.632812 C 270.210938 231.386719 269.457031 233.082031 268.566406 234.714844 C 267.675781 236.347656 266.660156 237.902344 265.519531 239.371094 C 264.378906 240.839844 263.128906 242.210938 261.765625 243.476562 C 260.410156 244.734375 259.164062 246.09375 258.027344 247.554688 C 256.886719 249.011719 255.875 250.550781 254.984375 252.175781 C 254.09375 253.796875 253.339844 255.476562 252.71875 257.222656 C 252.101562 258.964844 251.625 260.746094 251.289062 262.566406 C 250.957031 264.382812 250.769531 266.21875 250.734375 268.070312 C 250.695312 269.917969 250.804688 271.757812 251.0625 273.589844 C 251.320312 275.421875 251.722656 277.222656 252.265625 278.988281 C 252.8125 280.757812 253.5 282.46875 254.320312 284.125 C 263.671875 302.902344 279.871094 328.785156 304.59375 347.460938 C 305.972656 348.507812 307.421875 349.445312 308.9375 350.273438 C 310.457031 351.105469 312.027344 351.816406 313.652344 352.410156 C 315.277344 353.003906 316.9375 353.476562 318.632812 353.820312 C 320.328125 354.167969 322.039062 354.386719 323.765625 354.476562 C 325.492188 354.566406 327.21875 354.527344 328.9375 354.359375 C 330.660156 354.191406 332.359375 353.898438 334.039062 353.476562 C 335.714844 353.054688 337.351562 352.511719 338.949219 351.84375 C 340.546875 351.175781 342.082031 350.394531 343.5625 349.5 L 353.59375 343.394531 C 355.84375 342.023438 358.21875 340.925781 360.71875 340.101562 C 363.21875 339.273438 365.78125 338.738281 368.402344 338.5 C 371.027344 338.257812 373.640625 338.3125 376.25 338.667969 C 378.859375 339.023438 381.394531 339.671875 383.859375 340.605469 L 423.730469 355.765625 C 424.789062 356.167969 425.828125 356.621094 426.84375 357.128906 C 427.855469 357.632812 428.84375 358.183594 429.804688 358.785156 C 430.765625 359.386719 431.691406 360.035156 432.589844 360.726562 C 433.484375 361.421875 434.347656 362.15625 435.171875 362.933594 C 435.996094 363.710938 436.777344 364.527344 437.523438 365.378906 C 438.265625 366.234375 438.96875 367.121094 439.625 368.046875 C 440.28125 368.96875 440.890625 369.921875 441.453125 370.90625 C 442.019531 371.886719 442.53125 372.898438 442.996094 373.929688 C 443.460938 374.964844 443.871094 376.019531 444.234375 377.089844 C 444.59375 378.164062 444.902344 379.253906 445.152344 380.359375 C 445.40625 381.464844 445.605469 382.578125 445.75 383.703125 C 445.894531 384.824219 445.984375 385.953125 446.015625 387.085938 C 446.050781 388.21875 446.027344 389.347656 445.949219 390.480469 C 445.871094 391.609375 445.738281 392.734375 445.550781 393.851562 C 445.363281 394.96875 445.121094 396.074219 444.824219 397.167969 C 444.527344 398.261719 444.175781 399.335938 443.773438 400.394531 C 443.308594 401.613281 442.777344 402.800781 442.179688 403.960938 L 431.128906 425.378906 C 430.683594 426.242188 430.203125 427.085938 429.683594 427.910156 C 429.167969 428.734375 428.613281 429.535156 428.03125 430.3125 C 427.445312 431.089844 426.828125 431.839844 426.179688 432.566406 C 425.53125 433.292969 424.851562 433.988281 424.144531 434.65625 C 423.4375 435.324219 422.703125 435.960938 421.941406 436.566406 C 421.183594 437.175781 420.398438 437.746094 419.585938 438.289062 C 418.777344 438.828125 417.949219 439.332031 417.09375 439.800781 C 416.242188 440.273438 415.375 440.707031 414.484375 441.101562 C 413.597656 441.5 412.691406 441.855469 411.773438 442.175781 C 410.855469 442.496094 409.925781 442.777344 408.984375 443.019531 C 408.039062 443.261719 407.089844 443.464844 406.128906 443.625 C 405.171875 443.789062 404.207031 443.910156 403.234375 443.988281 C 402.265625 444.070312 401.296875 444.109375 400.320312 444.109375 C 399.347656 444.105469 398.378906 444.066406 397.410156 443.980469 C 396.4375 443.898438 395.476562 443.773438 394.515625 443.609375 C 393.558594 443.445312 392.605469 443.238281 391.664062 442.996094 C 329.039062 426.792969 179.789062 370.472656 167.761719 200.171875 C 167.644531 198.492188 167.648438 196.808594 167.773438 195.128906 C 167.902344 193.449219 168.148438 191.785156 168.519531 190.140625 C 168.886719 188.5 169.375 186.890625 169.976562 185.316406 C 170.582031 183.742188 171.296875 182.222656 172.125 180.753906 C 172.949219 179.285156 173.878906 177.882812 174.910156 176.550781 C 175.941406 175.21875 177.0625 173.96875 178.277344 172.796875 C 179.492188 171.628906 180.785156 170.554688 182.152344 169.574219 C 183.523438 168.59375 184.960938 167.71875 186.457031 166.949219 L 206.796875 156.5 C 207.804688 155.980469 208.835938 155.515625 209.886719 155.097656 C 210.941406 154.679688 212.011719 154.316406 213.101562 154.003906 C 214.191406 153.695312 215.292969 153.4375 216.410156 153.234375 C 217.523438 153.027344 218.644531 152.882812 219.773438 152.789062 C 220.90625 152.695312 222.035156 152.65625 223.167969 152.675781 C 224.300781 152.695312 225.429688 152.765625 226.558594 152.894531 C 227.683594 153.023438 228.800781 153.207031 229.90625 153.449219 C 231.015625 153.6875 232.109375 153.980469 233.1875 154.324219 C 234.265625 154.671875 235.324219 155.070312 236.367188 155.519531 C 237.40625 155.96875 238.421875 156.46875 239.410156 157.019531 C 240.402344 157.570312 241.363281 158.167969 242.296875 158.8125 C 243.226562 159.457031 244.125 160.144531 244.992188 160.878906 C 245.855469 161.609375 246.679688 162.382812 247.46875 163.199219 C 248.257812 164.011719 249.003906 164.863281 249.710938 165.75 C 250.414062 166.636719 251.074219 167.558594 251.6875 168.507812 C 252.300781 169.460938 252.867188 170.441406 253.386719 171.449219 Z M 253.386719 171.449219 " fill-opacity="1" fill-rule="nonzero"/></svg>