<svg xmlns="http://www.w3.org/2000/svg" xmlns:xlink="http://www.w3.org/1999/xlink" width="800" zoomAndPan="magnify" viewBox="0 0 600 599.999999" height="800" preserveAspectRatio="xMidYMid meet" version="1.0"><rect x="-60" width="720" fill="#ffffff" y="-60" height="719.999999" fill-opacity="1"/><rect x="-60" width="720" fill="#302f3b" y="-60" height="719.999999" fill-opacity="1"/><path fill="#f26849" d="M 300 0 C 134.316406 0 0 134.316406 0 300 C 0 465.683594 134.316406 600 300 600 C 465.683594 600 600 465.683594 600 300 C 600 134.316406 465.683594 0 300 0 Z M 300 577.277344 C 146.863281 577.277344 22.722656 453.136719 22.722656 300 C 22.722656 146.863281 146.863281 22.722656 300 22.722656 C 453.136719 22.722656 577.277344 146.863281 577.277344 300 C 577.277344 453.136719 453.136719 577.277344 300 577.277344 Z M 300 577.277344 " fill-opacity="1" fill-rule="nonzero"/><path fill="#f26849" d="M 264.789062 447.050781 C 257.265625 447.773438 251.253906 448.601562 245.21875 448.886719 C 210.988281 450.503906 185.648438 437.011719 170.277344 405.542969 C 165.382812 395.519531 159.117188 386.0625 152.59375 376.984375 C 148.675781 371.53125 143.183594 367.152344 138.113281 362.609375 L 138.050781 362.554688 C 134.914062 359.792969 136.296875 354.632812 140.417969 353.941406 C 145.253906 353.128906 149.761719 354 154.15625 355.121094 C 167.921875 358.625 176.753906 368.378906 183.792969 380.050781 C 199.714844 406.441406 227.125 417.449219 256.769531 409.585938 C 261.800781 408.253906 264.019531 406.085938 265.117188 400.597656 C 266.394531 394.195312 268.128906 387.886719 269.996094 381.453125 C 270.132812 380.980469 270.246094 380.503906 270.335938 380.019531 C 270.425781 379.535156 270.488281 379.046875 270.527344 378.558594 C 270.566406 378.066406 270.582031 377.574219 270.570312 377.085938 C 270.558594 376.59375 270.523438 376.101562 270.464844 375.613281 C 270.402344 375.125 270.316406 374.640625 270.207031 374.160156 C 270.097656 373.683594 269.964844 373.210938 269.808594 372.742188 C 269.652344 372.277344 269.46875 371.820312 269.265625 371.371094 C 269.0625 370.925781 268.835938 370.488281 268.589844 370.0625 C 268.339844 369.640625 268.070312 369.226562 267.78125 368.828125 C 267.492188 368.433594 267.183594 368.050781 266.855469 367.683594 C 266.527344 367.316406 266.179688 366.96875 265.816406 366.636719 C 265.453125 366.308594 265.074219 365.996094 264.675781 365.703125 C 264.28125 365.410156 263.871094 365.136719 263.449219 364.886719 C 263.027344 364.636719 262.59375 364.40625 262.144531 364.199219 C 261.699219 363.992188 261.242188 363.808594 260.777344 363.648438 C 260.3125 363.488281 259.84375 363.347656 259.363281 363.238281 L 259.195312 363.195312 C 228.4375 355.839844 201.871094 342.136719 184.75 314.027344 C 175.59375 298.996094 171.066406 282.441406 171.296875 265.191406 C 171.5625 245.621094 173.292969 226.011719 175.539062 206.550781 C 177.125 192.847656 183.46875 180.714844 193.324219 170.863281 C 196.757812 167.429688 197.046875 164.546875 195.390625 160.101562 C 188.605469 141.894531 189.785156 123.652344 195.804688 105.40625 C 197.503906 100.257812 199.917969 99.519531 204.839844 101.070312 C 220.082031 105.867188 231.453125 115.785156 241.445312 127.660156 L 241.546875 127.78125 C 242.171875 128.53125 242.847656 129.230469 243.578125 129.882812 C 244.304688 130.53125 245.078125 131.121094 245.894531 131.65625 C 246.710938 132.1875 247.5625 132.660156 248.449219 133.066406 C 249.335938 133.472656 250.25 133.8125 251.1875 134.082031 C 252.125 134.355469 253.074219 134.554688 254.042969 134.683594 C 255.011719 134.8125 255.980469 134.867188 256.957031 134.851562 C 257.933594 134.835938 258.902344 134.75 259.863281 134.589844 C 260.828125 134.429688 261.773438 134.199219 262.699219 133.898438 C 294.324219 123.523438 342.308594 123.386719 372.136719 133.652344 C 373.066406 133.96875 374.019531 134.210938 374.988281 134.386719 C 375.957031 134.558594 376.929688 134.660156 377.914062 134.683594 C 378.898438 134.710938 379.878906 134.664062 380.855469 134.542969 C 381.832031 134.421875 382.792969 134.226562 383.742188 133.960938 C 384.6875 133.695312 385.609375 133.359375 386.507812 132.953125 C 387.402344 132.546875 388.265625 132.078125 389.089844 131.542969 C 389.917969 131.007812 390.699219 130.414062 391.433594 129.761719 C 392.171875 129.109375 392.855469 128.402344 393.484375 127.648438 L 393.582031 127.535156 C 403.589844 115.660156 415.011719 105.820312 430.242188 101.007812 C 435.351562 99.394531 437.527344 100.625 439.144531 105.59375 C 445.085938 123.847656 446.101562 141.984375 439.671875 160.378906 C 438.765625 162.96875 438.804688 167.472656 440.414062 169.109375 C 454.070312 182.960938 460.046875 200.15625 461.566406 218.785156 C 463.03125 236.785156 464.617188 255.09375 462.945312 272.96875 C 458.597656 319.449219 430.335938 346.523438 387.355469 359.984375 C 383.679688 361.132812 379.941406 362.101562 376.128906 363 C 375.632812 363.117188 375.148438 363.261719 374.667969 363.429688 C 374.1875 363.597656 373.71875 363.789062 373.257812 364.007812 C 372.800781 364.222656 372.351562 364.464844 371.917969 364.726562 C 371.484375 364.992188 371.0625 365.277344 370.660156 365.585938 C 370.253906 365.890625 369.867188 366.21875 369.496094 366.566406 C 369.128906 366.917969 368.777344 367.28125 368.445312 367.667969 C 368.113281 368.050781 367.800781 368.453125 367.511719 368.871094 C 367.222656 369.289062 366.957031 369.71875 366.710938 370.164062 C 366.464844 370.609375 366.246094 371.066406 366.050781 371.535156 C 365.851562 372.003906 365.679688 372.484375 365.535156 372.96875 C 365.386719 373.457031 365.265625 373.949219 365.171875 374.449219 C 365.074219 374.945312 365.007812 375.449219 364.964844 375.957031 C 364.921875 376.460938 364.90625 376.96875 364.914062 377.476562 C 364.925781 377.984375 364.964844 378.492188 365.027344 378.996094 C 365.089844 379.5 365.179688 380 365.296875 380.496094 C 365.410156 380.988281 365.550781 381.476562 365.71875 381.957031 C 371.574219 398.921875 370.679688 417.046875 370.589844 435.054688 C 370.566406 439.195312 370.554688 443.335938 370.546875 447.480469 C 370.542969 449.191406 370.453125 450.898438 370.285156 452.597656 C 370.113281 454.300781 369.859375 455.988281 369.523438 457.667969 C 369.183594 459.34375 368.765625 461 368.269531 462.632812 C 367.769531 464.269531 367.191406 465.878906 366.535156 467.457031 C 365.875 469.035156 365.144531 470.578125 364.335938 472.085938 C 363.527344 473.59375 362.644531 475.054688 361.695312 476.476562 C 360.742188 477.898438 359.722656 479.269531 358.636719 480.589844 C 357.550781 481.910156 356.402344 483.171875 355.191406 484.382812 C 353.980469 485.589844 352.714844 486.734375 351.390625 487.820312 C 350.066406 488.902344 348.695312 489.917969 347.273438 490.867188 C 345.847656 491.816406 344.382812 492.695312 342.875 493.5 C 341.367188 494.304688 339.820312 495.03125 338.242188 495.6875 C 336.660156 496.339844 335.050781 496.914062 333.414062 497.410156 C 331.777344 497.90625 330.121094 498.320312 328.445312 498.652344 C 326.765625 498.988281 325.078125 499.238281 323.375 499.402344 C 321.671875 499.570312 319.964844 499.65625 318.257812 499.65625 L 317.078125 499.65625 C 315.367188 499.65625 313.65625 499.570312 311.953125 499.402344 C 310.25 499.234375 308.558594 498.984375 306.878906 498.648438 C 305.199219 498.316406 303.539062 497.898438 301.898438 497.402344 C 300.261719 496.90625 298.648438 496.328125 297.066406 495.675781 C 295.484375 495.019531 293.9375 494.289062 292.429688 493.480469 C 290.917969 492.671875 289.453125 491.792969 288.027344 490.84375 C 286.605469 489.890625 285.230469 488.871094 283.90625 487.785156 C 282.582031 486.699219 281.316406 485.550781 280.105469 484.339844 C 278.894531 483.128906 277.742188 481.859375 276.65625 480.535156 C 275.570312 479.214844 274.550781 477.839844 273.601562 476.414062 C 272.648438 474.992188 271.769531 473.523438 270.960938 472.015625 C 270.15625 470.503906 269.425781 468.957031 268.769531 467.375 C 268.113281 465.792969 267.535156 464.183594 267.039062 462.542969 C 266.542969 460.90625 266.128906 459.246094 265.792969 457.566406 C 265.460938 455.886719 265.207031 454.195312 265.039062 452.488281 C 264.871094 450.785156 264.789062 449.078125 264.789062 447.363281 Z M 264.789062 447.050781 " fill-opacity="1" fill-rule="nonzero"/></svg>